<svg width="48" height="48" viewBox="0 0 48 48" fill="none" xmlns="http://www.w3.org/2000/svg">
<path d="M37.5 6.045C36.3525 6.045 35.2245 6.495 34.359 7.359L19.5 22.17L19.17 22.5L19.08 22.9695L18.045 28.2195L17.58 30.4215L19.7805 29.9565L25.0305 28.9215L25.5 28.8315L25.83 28.5015L40.641 13.6425C41.2613 13.02 41.6835 12.2279 41.8544 11.3659C42.0254 10.5039 41.9373 9.61054 41.6015 8.79847C41.2656 7.98639 40.6969 7.29188 39.967 6.80243C39.2372 6.31298 38.3788 6.05048 37.5 6.048V6.045ZM37.5 8.955C37.8525 8.955 38.196 9.135 38.532 9.4695C39.201 10.1385 39.201 10.8615 38.532 11.532L24 26.061L21.42 26.577L21.9375 23.997L36.4695 9.465C36.804 9.1305 37.1475 8.9505 37.5 8.9505V8.955ZM6 12V42H36V22.218L33 25.218V39H9V15H22.782L25.782 12H6Z" fill="black"/>
</svg>
